<?xml version="1.0" standalone="no"?>
<!DOCTYPE svg PUBLIC "-//W3C//DTD SVG 20010904//EN"
 "http://www.w3.org/TR/2001/REC-SVG-20010904/DTD/svg10.dtd">
<svg version="1.0" xmlns="http://www.w3.org/2000/svg"
 width="300.000000pt" height="300.000000pt" viewBox="0 0 300.000000 300.000000"
 preserveAspectRatio="xMidYMid meet">
<metadata>
Created by potrace 1.10, written by Peter Selinger 2001-2011
</metadata>
<g transform="translate(0.000000,300.000000) scale(0.100000,-0.100000)"
fill="#000000" stroke="none">
<path d="M2458 2564 c-16 -8 -28 -18 -28 -22 0 -4 -10 -19 -23 -33 -12 -15
-105 -151 -207 -303 l-185 -276 -130 0 c-108 0 -134 -3 -151 -18 -23 -18 -48
-53 -182 -252 -47 -69 -97 -141 -111 -160 -14 -19 -53 -76 -86 -126 -33 -50
-91 -136 -129 -190 -38 -55 -78 -118 -90 -141 l-21 -42 -90 137 c-49 76 -180
276 -289 445 l-199 307 -174 0 -173 0 39 -57 c21 -32 84 -130 139 -218 103
-166 131 -210 400 -634 118 -185 160 -260 156 -275 -7 -29 175 -306 201 -306
22 0 65 59 305 420 134 201 263 391 288 423 59 77 104 145 120 182 8 16 44 74
80 127 37 54 86 127 109 161 23 34 50 72 59 84 9 13 22 30 28 39 9 12 37 16
126 20 90 4 120 9 140 23 14 10 54 61 90 114 36 53 72 104 80 114 8 10 60 84
115 165 55 81 115 168 133 193 37 55 39 68 13 94 -18 18 -35 20 -173 20 -118
0 -159 -3 -180 -15z m352 -24 c0 -4 -34 -56 -76 -116 -186 -264 -241 -344
-292 -419 -83 -123 -67 -114 -211 -117 l-126 -3 -489 -733 -488 -732 -94 142
-94 143 147 217 c139 204 339 498 567 833 l98 145 142 0 141 0 104 158 c58 86
157 233 220 325 l115 168 168 -2 c92 -1 168 -5 168 -9z m-2293 -684 c11 -4 24
-13 26 -20 3 -8 51 -82 106 -166 56 -83 101 -156 101 -161 0 -5 4 -9 9 -9 5 0
11 -6 13 -12 3 -12 92 -150 239 -370 32 -49 61 -99 65 -113 5 -19 -7 -44 -57
-119 -35 -52 -72 -97 -81 -99 -17 -5 -38 24 -129 174 -15 24 -63 102 -108 172
-45 71 -81 133 -81 138 0 5 -4 9 -8 9 -5 0 -15 12 -22 28 -8 15 -41 70 -75
122 -71 108 -209 329 -236 378 -24 42 -24 50 4 54 41 6 212 2 234 -6z"/>
</g>
</svg>
